<?xml version="1.0" standalone="no"?>
<!DOCTYPE svg PUBLIC "-//W3C//DTD SVG 20010904//EN"
 "http://www.w3.org/TR/2001/REC-SVG-20010904/DTD/svg10.dtd">
<svg version="1.0" xmlns="http://www.w3.org/2000/svg"
 width="1000.000000pt" height="1000.000000pt" viewBox="0 0 1000.000000 1000.000000"
 preserveAspectRatio="xMidYMid meet">
<metadata>
</metadata>
<g transform="translate(0.000000,1000.000000) scale(0.100000,-0.100000)"
fill="#000000" stroke="none">
<path d="M0 5000 l0 -5000 5000 0 5000 0 0 5000 0 5000 -5000 0 -5000 0 0
-5000z m4484 1525 c115 -22 199 -66 282 -149 82 -82 123 -158 155 -286 18 -72
21 -104 16 -220 -7 -201 -50 -312 -171 -438 -55 -58 -174 -132 -212 -132 -7 0
-16 -5 -19 -10 -4 -6 105 -203 241 -438 136 -235 249 -430 251 -434 2 -5 -104
-8 -235 -8 l-240 0 -239 428 -240 427 -124 0 -124 0 -3 -427 -2 -428 -195 0
-195 0 0 1065 0 1065 489 0 c386 0 505 -3 565 -15z m1755 5 c230 -24 379 -87
506 -215 128 -129 176 -245 196 -480 16 -181 6 -767 -14 -855 -24 -103 -56
-177 -111 -259 -64 -93 -143 -159 -261 -216 -171 -82 -273 -95 -777 -95 l-368
0 0 1065 0 1065 364 0 c200 0 409 -5 465 -10z m1694 -37 c8 -27 99 -348 203
-715 103 -368 191 -665 195 -660 4 4 97 324 206 712 l199 705 262 3 262 2 0
-1065 0 -1065 -180 0 -180 0 -2 754 -3 755 -195 -634 -195 -635 -176 0 -175 0
-195 617 -194 618 -3 -738 -2 -737 -180 0 -180 0 0 1065 0 1065 260 0 259 0
14 -47z"/>
<path d="M3824 6147 c-2 -7 -3 -120 -2 -252 l3 -240 265 -3 c302 -3 326 1 384
69 86 101 79 299 -14 383 -21 19 -56 39 -77 45 -58 16 -552 15 -559 -2z"/>
<path d="M5805 6148 c-3 -7 -4 -314 -3 -683 l3 -670 155 -3 c269 -5 386 22
476 112 33 34 59 72 75 111 24 60 24 61 24 460 0 399 0 400 -24 460 -49 122
-156 194 -315 215 -111 15 -386 13 -391 -2z"/>
</g>
</svg>
